<svg id="Group" xmlns="http://www.w3.org/2000/svg" width="21" height="19" viewBox="0 0 21 19">
  <path id="Path" d="M16.334,0H4.666A4.7,4.7,0,0,0,0,4.7V8.485a1.05,1.05,0,1,0,2.1,0V6.808A1.053,1.053,0,0,1,3.15,5.752h14.7A1.053,1.053,0,0,1,18.9,6.808V8.485a1.05,1.05,0,1,0,2.1,0V4.7A4.7,4.7,0,0,0,16.334,0Z" transform="translate(0 9.458)"/>
  <path id="Path-2" data-name="Path" d="M15.805,6.384A1.108,1.108,0,0,1,14.7,5.272V3.929a1.7,1.7,0,0,0-1.694-1.7H3.9a1.7,1.7,0,0,0-1.694,1.7V5.272A1.105,1.105,0,1,1,0,5.272V3.929A3.922,3.922,0,0,1,3.9,0H13a3.922,3.922,0,0,1,3.9,3.929V5.272A1.108,1.108,0,0,1,15.8,6.384Z" transform="translate(2.045)"/>
  <rect id="Rectangle" width="9.199" height="3.106" rx="1.426" transform="translate(5.901 4.776)"/>
</svg>
