<svg xmlns="http://www.w3.org/2000/svg" width="23" height="20" viewBox="0 0 23 20">
  <g id="Group" transform="translate(42 -7)">
    <path id="path2" d="M11.8.005A8.728,8.728,0,0,0,6.465,1.6,9.506,9.506,0,0,0,2.8,6.859a1.4,1.4,0,0,0-.583.057A3.037,3.037,0,0,0,.433,8.556a5.812,5.812,0,0,0-.366,3.119,4.852,4.852,0,0,0,1.206,2.689A1.97,1.97,0,0,0,3.158,15c.969-.217,1.449-.38,1.313-1.329l-.657-4.6A8.187,8.187,0,0,1,7.224,2.8a7.385,7.385,0,0,1,8.96.309,8.22,8.22,0,0,1,3,5.977L18.725,12.3a7.762,7.762,0,0,1-6.5,5.279H10.266a.934.934,0,0,0-.911.958v.505a.934.934,0,0,0,.911.958h2.467a.932.932,0,0,0,.909-.958v-.264a9.1,9.1,0,0,0,5.409-4l.79.22a1.906,1.906,0,0,0,1.886-.637,4.855,4.855,0,0,0,1.206-2.689,5.851,5.851,0,0,0-.366-3.119A2.635,2.635,0,0,0,21,6.978a3.2,3.2,0,0,0-.809-.119,9.539,9.539,0,0,0-3.178-4.891A8.776,8.776,0,0,0,11.8.005Z" transform="translate(-42 7)"/>
    <path id="path4" d="M1.326,12.9,1.7,11.135A6.735,6.735,0,0,1,0,6.584,6.356,6.356,0,0,1,6.261,0a6.355,6.355,0,0,1,6.26,6.584,6.354,6.354,0,0,1-6.26,6.584,6.1,6.1,0,0,1-2.545-.551l-1.636.959a.643.643,0,0,1-.322.1C1.434,13.674,1.231,13.341,1.326,12.9Z" transform="translate(-36.761 10.163)"/>
  </g>
</svg>
