<svg id="Group" xmlns="http://www.w3.org/2000/svg" width="24" height="24" viewBox="0 0 24 24">
  <path id="Path" d="M19.111,0H1.333a1.333,1.333,0,0,0,0,2.667H19.111a1.333,1.333,0,0,0,0-2.667Z" transform="translate(3.556 16.889)"/>
  <path id="Path-2" data-name="Path" d="M1.333,2.667H19.111a1.333,1.333,0,0,0,0-2.667H1.333a1.333,1.333,0,0,0,0,2.667Z" transform="translate(0 4.444)"/>
  <path id="Path-3" data-name="Path" d="M.391,2.275l3.5,3.5-3.5,3.5a1.333,1.333,0,0,0,1.884,1.885L6.72,6.72a1.332,1.332,0,0,0,0-1.885L2.275.391A1.333,1.333,0,0,0,.391,2.275Z" transform="translate(16.889 12.445)"/>
  <path id="Path-4" data-name="Path" d="M6.72,9.28l-3.5-3.5,3.5-3.5A1.333,1.333,0,0,0,4.835.391L.391,4.835a1.332,1.332,0,0,0,0,1.885l4.444,4.445A1.333,1.333,0,0,0,6.72,9.28Z" transform="translate(0)"/>
</svg>
