<svg xmlns="http://www.w3.org/2000/svg" width="23" height="23" viewBox="0 0 23 23">
  <g id="Group_34" data-name="Group 34" transform="translate(0 0)">
    <path id="Combined_Shape" data-name="Combined Shape" d="M11.5,23A11.5,11.5,0,0,1,3.368,3.368,11.5,11.5,0,1,1,19.632,19.632,11.425,11.425,0,0,1,11.5,23ZM8.072,10.1a.612.612,0,0,0-.43.177l-.86.86a.611.611,0,0,0,0,.86L9.071,14.29l.86.86a.61.61,0,0,0,.86,0l.86-.86,4.577-4.577a.61.61,0,0,0,0-.86l-.86-.86a.611.611,0,0,0-.86,0l-4.147,4.154L8.5,10.282A.612.612,0,0,0,8.072,10.1Z" fill="#4eaf51"/>
  </g>
</svg>
