<svg xmlns="http://www.w3.org/2000/svg" width="33.75" height="25" viewBox="0 0 33.75 25">
  <g id="Group" opacity="0.749">
    <path id="Path" d="M6.939,1.459A12.307,12.307,0,0,1,8.809.293,7.253,7.253,0,0,0,.133,4.327L0,4.632l3.3,1.45A10.866,10.866,0,0,1,6.939,1.459Z" transform="translate(19.72 6.402)"/>
    <path id="Path-2" data-name="Path" d="M.551,0A11.576,11.576,0,0,1,0,7.968l3.3,1.45.133-.3A7.214,7.214,0,0,0,4.053,6.2,7.238,7.238,0,0,0,.551,0Z" transform="translate(29.697 7.45)"/>
    <path id="Path-3" data-name="Path" d="M1.214,2.434c.007-.007.007-.02.013-.026l.106-.238L1.877.931A.664.664,0,0,0,.663.394L.119,1.633l-.106.238C.007,1.878.007,1.891,0,1.9a5.908,5.908,0,0,1,.617.238Q.925,2.275,1.214,2.434Z" transform="translate(28.795 4.877)"/>
    <path id="Path-4" data-name="Path" d="M2.753,6.278l1.506.663a.04.04,0,0,1,.007-.026A10.326,10.326,0,0,0,4.776,0,10.294,10.294,0,0,0,.013,5.047c0,.007-.007.013-.013.02l1.538.677L.087,9.039c.418.159.829.331,1.221.517Z" transform="translate(24.231 7.947)"/>
    <path id="Shape" d="M2.381,21.4A2.382,2.382,0,0,1,0,19.026V7.667A2.382,2.382,0,0,1,2.381,5.289h.576v-2.4H2.446V1.062A1.063,1.063,0,0,1,3.51,0h5.2A1.063,1.063,0,0,1,9.769,1.062V2.885h-.51v2.4h.571a2.383,2.383,0,0,1,2.388,2.378V19.026A2.383,2.383,0,0,1,9.831,21.4Z" transform="translate(4.245)"/>
    <path id="Path-5" data-name="Path" d="M25.539,1.954,24.252,4.875a.654.654,0,0,1-.6.4.758.758,0,0,1-.265-.053.667.667,0,0,1-.345-.874l1.28-2.908A22.146,22.146,0,0,0,17.791,0V3.477a3.713,3.713,0,0,1-3.715,3.7H6.627A3.716,3.716,0,0,1,3.051,4.451C1.134,6.067,0,7.875,0,9.451H32.663V9.319C32.437,6.8,29.678,3.861,25.539,1.954Z" transform="translate(0 15.549)"/>
  </g>
</svg>
