<svg id="Logo" xmlns="http://www.w3.org/2000/svg" xmlns:xlink="http://www.w3.org/1999/xlink" width="173" height="49" viewBox="0 0 173 49">
  <defs>
    <clipPath id="clip-path">
      <path id="Clip_8" data-name="Clip 8" d="M0,0H18.219V17.751H0Z" fill="none"/>
    </clipPath>
    <clipPath id="clip-path-2">
      <path id="Clip_11" data-name="Clip 11" d="M0,0H18.057V17.678H0Z" fill="none"/>
    </clipPath>
  </defs>
  <g id="Group_19" data-name="Group 19" transform="translate(0 5)">
    <path id="Fill_1" data-name="Fill 1" d="M12.574,26.192a1.565,1.565,0,0,1-1.026-.472c-.648-.575-1.324-1.142-1.977-1.689-1.069-.9-2.174-1.822-3.185-2.81a11.662,11.662,0,0,1-3.373-8.3c-.094-3.054-.089-5.555.018-7.871A3.831,3.831,0,0,0,.484.882.955.955,0,0,1,0,.427C4.76.143,9.507,0,14.109,0c3.66,0,7.333.091,10.917.269.015.108.031.216.047.324L24.75.782c-.224.131-.453.266-.68.4a3.325,3.325,0,0,0-1.856,3.156c.02,2.712.02,5.921-.128,9.161a11,11,0,0,1-3.216,7.634c-1.079,1.059-2.261,2.051-3.4,3.01-.608.51-1.236,1.037-1.842,1.569A1.62,1.62,0,0,1,12.574,26.192ZM5.7,8.266c0,.375-.007.758-.015,1.127-.016.825-.032,1.676.032,2.508.188,2.452.629,4.4,2.164,5.945.747.752,1.539,1.483,2.306,2.19.569.525,1.158,1.068,1.722,1.615a1.015,1.015,0,0,0,.687.356,1.064,1.064,0,0,0,.714-.378C14.367,20.6,15.4,19.6,16.5,18.646a7.892,7.892,0,0,0,2.587-4.372,33.82,33.82,0,0,0,.284-9.8l-.025-.368c-.048-.7-.369-1.033-1.01-1.033a3.047,3.047,0,0,0-.583.066,26.892,26.892,0,0,1-5.188.52A24.335,24.335,0,0,1,7.29,3.084a2.3,2.3,0,0,0-.493-.06c-.666,0-.994.4-1.033,1.256-.043.932-.033,1.881-.024,2.8,0,.389.008.792.008,1.187Z" transform="translate(21.884 11.748)" fill="#d3a236"/>
    <path id="Fill_3" data-name="Fill 3" d="M.1,0A4.244,4.244,0,0,1,.869.484c4.7,4.909,10.581,8.131,16.455,11.364,1.276.7,2.594,1.332,3.893,1.994A2.793,2.793,0,0,1,22.779,16.6a107.923,107.923,0,0,0,.682,10.873c.468,3.574,2.688,6.288,5.377,8.6.981.842,2.053,1.578,3.21,2.458-.241,0-.383.043-.475-.006-2.6-1.408-5.215-2.778-7.773-4.252a8.791,8.791,0,0,1-4.545-7.515c-.174-2.731-.469-5.455-.643-8.187a2.336,2.336,0,0,0-1.777-2.276C9.486,13.437,3.483,9.056.359,1.544A9.964,9.964,0,0,1,.007.551C-.021.454.039.33.1,0" transform="translate(0.385 0.211)" fill="#d3a236"/>
    <path id="Fill_5" data-name="Fill 5" d="M0,38.824c1.554-1.355,3.171-2.645,4.646-4.078A12.666,12.666,0,0,0,8.67,26.578c.257-3.116.482-6.247.454-9.369A3.45,3.45,0,0,1,11.2,13.771C15.474,11.412,19.8,9.12,23.912,6.492A80.651,80.651,0,0,0,31.151.649c.2-.16.416-.289.94-.649A12.168,12.168,0,0,1,31.7,1.491,23.877,23.877,0,0,1,21.276,13.433c-2.2,1.22-4.5,2.272-6.8,3.3-1.129.5-1.093,1.43-1.175,2.343q-.372,4.151-.685,8.307a8.221,8.221,0,0,1-4.065,6.795C5.773,35.855,2.91,37.4.084,39L0,38.824" transform="translate(36.585)" fill="#d3a236"/>
    <g id="Group_9" data-name="Group 9" transform="translate(50.781 6.004)">
      <path id="Clip_8-2" data-name="Clip 8" d="M0,0H18.219V17.751H0Z" fill="none"/>
      <g id="Group_9-2" data-name="Group 9" clip-path="url(#clip-path)">
        <path id="Fill_7" data-name="Fill 7" d="M18.219.154c-.3,1.117-.587,2.237-.894,3.352C15.633,9.656,11.66,13.768,5.766,16.127,4.342,16.7,2.871,17.163,1.4,17.6c-1.153.345-1.4.125-1.4-1.1,0-1.094.038-2.189.081-3.283A2.1,2.1,0,0,1,1.436,11.2,50.4,50.4,0,0,0,17.368.416,6,6,0,0,1,17.9,0l.32.154" fill="#131313"/>
      </g>
    </g>
    <g id="Group_12" data-name="Group 12" transform="translate(0 6.045)">
      <path id="Clip_11-2" data-name="Clip 11" d="M0,0H18.057V17.678H0Z" fill="none"/>
      <g id="Group_12-2" data-name="Group 12" clip-path="url(#clip-path-2)">
        <path id="Fill_10" data-name="Fill 10" d="M.075,0C2.521,1.992,4.787,4.146,7.356,5.852c2.968,1.972,6.215,3.529,9.31,5.318.5.287,1.127.806,1.193,1.285a36.418,36.418,0,0,1,.2,4.442c.009.648-.364.852-1.023.76C8.492,16.466.828,8.638,0,.232A.68.68,0,0,1,.075,0" transform="translate(0)" fill="#131313"/>
      </g>
    </g>
    <path id="Fill_13" data-name="Fill 13" d="M.061,0c1.8.991,3.492,2.063,5.3,2.887,2.105.959,4.291,1.76,6.483,2.51.893.305,1.441.713,1.565,1.651s.3,1.852.429,2.78c.095.671-.132,1.035-.908.98A14.955,14.955,0,0,1,0,.177C-.007.146.024.1.061,0" transform="translate(5.256 19.384)" fill="#131313"/>
    <path id="Fill_15" data-name="Fill 15" d="M14.062,0c-.509,1.073-.936,1.929-1.324,2.8a12.428,12.428,0,0,1-8.886,7.263c-.957.236-1.9.523-2.859.762-.726.181-1.081-.136-.975-.862A32.429,32.429,0,0,1,.63,6.5a1.549,1.549,0,0,1,.949-.9A40.884,40.884,0,0,0,13.447.123,3.381,3.381,0,0,1,14.062,0" transform="translate(49.788 19.361)" fill="#131313"/>
    <path id="Fill_17" data-name="Fill 17" d="M1.117,5.306a.583.583,0,0,1-.06,0,.925.925,0,0,0-.1,0L.87,5.3l-.079,0A1.359,1.359,0,0,1,.44,4.829,3.435,3.435,0,0,0,.179,4.4L.105,4.288a.415.415,0,0,1,0-.556c.054-.079.107-.168.164-.272q.294-.543.587-1.087l.016-.029.219-.407-.012,0c-.2-.049-.21-.051-.3-.235a4.793,4.793,0,0,0-.309-.521C.406,1.073.335.966.272.857A.45.45,0,0,1,.28.373C.3.349.311.325.326.3A.908.908,0,0,1,.4.186.349.349,0,0,1,.627.067,3.938,3.938,0,0,1,1.424,0c.117,0,.235,0,.35,0s.238.005.367.005h.1C2.491.005,2.757,0,3.08,0H4.354l.054.071.12.158L4.584.18,4.753.012H8.515a1.47,1.47,0,0,1,.458.607,2.139,2.139,0,0,0,.258.44.477.477,0,0,1,.01.545.057.057,0,0,1-.012.013.069.069,0,0,0-.012.012c-.189.279-.189.279-.528.279H8.35a3.923,3.923,0,0,1,.2.383,2.894,2.894,0,0,0,.268.472,2.78,2.78,0,0,1,.275.5c.046.1.094.2.148.3.064.117.134.233.2.345.094.156.19.316.272.48a.549.549,0,0,1-.1.711c-.025.026-.05.05-.076.075l-.049.048H8.29l-.175-.3L8.1,4.9,6.867,2.786c-.029.045-.06.089-.091.133a2.294,2.294,0,0,0-.186.3A13.8,13.8,0,0,1,5.9,4.461l-.043.07a4.324,4.324,0,0,0-.3.534.361.361,0,0,1-.348.231c-.106.006-.221.009-.353.009S4.6,5.3,4.479,5.3H4.422a.363.363,0,0,1-.3-.165c-.085-.137-.164-.28-.241-.419-.058-.106-.119-.216-.182-.322s-.139-.227-.208-.336c-.082-.128-.166-.261-.243-.4-.113-.2-.22-.4-.333-.617-.053-.1-.106-.2-.163-.309-.036.057-.07.109-.1.159-.068.1-.127.195-.18.291s-.095.177-.139.264c-.068.134-.139.273-.221.4a2.71,2.71,0,0,0-.145.272,1.89,1.89,0,0,1-.231.391,1.812,1.812,0,0,0-.263.514l-.007.017A.344.344,0,0,1,1.117,5.306Zm3.646-.553a.331.331,0,0,0-.312.2c-.016.028-.029.058-.044.093l-.019.042h.933l.107-.157.12-.176h-.23l-.222,0c-.118,0-.215,0-.3-.009ZM2.443,2.327a3.3,3.3,0,0,0-.321.544,2.987,2.987,0,0,1-.335.556,6.346,6.346,0,0,1-.445.836A6.6,6.6,0,0,0,.9,5.089h.373c.012-.025.022-.051.033-.077a1.16,1.16,0,0,1,.085-.175c.117-.182.22-.376.319-.563s.212-.4.336-.59A4.494,4.494,0,0,0,2.3,3.229c.057-.116.117-.235.182-.348C2.655,2.577,2.666,2.559,2.443,2.327ZM8.649,4.774l-.072.158-.038.082H9.5l.042-.091.069-.149H8.649ZM2.573,1.561c-.228.235-.236.314-.057.566a.364.364,0,0,0,.036.04.219.219,0,0,1,.048.062,7.154,7.154,0,0,0,.477.849c.1.159.2.323.3.49.133.237.276.476.414.707.107.18.218.365.323.548a.617.617,0,0,0,.094.113c.02.021.041.043.064.069a.567.567,0,0,1,.064-.143c.041-.072.077-.134.039-.215l-.025-.054a2.272,2.272,0,0,0-.193-.362,7.5,7.5,0,0,1-.419-.7c-.087-.157-.177-.32-.274-.476s-.172-.3-.251-.457c-.063-.123-.129-.251-.2-.372-.093-.16-.2-.316-.3-.467C2.663,1.695,2.617,1.629,2.573,1.561Zm4.162-.046L6.7,1.582l-.138.272.115.206c.168.3.339.607.511.913l.122.218c.127.228.257.462.4.685s.277.474.417.726c.067.121.134.243.2.367.018-.028.035-.053.052-.078a1.034,1.034,0,0,0,.094-.156c.019-.045.028-.129,0-.154a.887.887,0,0,1-.181-.29,1.248,1.248,0,0,0-.108-.2,7.362,7.362,0,0,1-.439-.744c-.05-.092-.1-.181-.146-.269a.913.913,0,0,1-.057-.135.64.64,0,0,0-.085-.177A3.767,3.767,0,0,1,7.1,2.136,3.672,3.672,0,0,0,6.736,1.516ZM6.611,2.3l-.1.181L6.5,2.49c-.062.107-.121.208-.178.31l-.05.09c-.194.353-.395.718-.627,1.055-.139.2-.137.272.016.526l.022-.02a.288.288,0,0,0,.05-.052,4.173,4.173,0,0,0,.225-.4,3.651,3.651,0,0,1,.267-.455c.1-.14.191-.292.277-.438.072-.122.147-.249.228-.368a.246.246,0,0,0,.041-.218.485.485,0,0,0-.1-.149C6.652,2.352,6.631,2.327,6.611,2.3ZM4.963,1.705h0l-.022.04c-.095.174-.126.232-.72.241a4.346,4.346,0,0,0,.294.541c.072.119.146.241.214.371l.123-.229c.1-.184.19-.357.289-.521l.022-.034c.03-.046.058-.09.038-.142-.008-.02-.032-.033-.058-.046a.181.181,0,0,1-.056-.038A.993.993,0,0,1,5,1.764l-.037-.058Zm-3.329.061c.143,0,.259,0,.366.01h.027a.366.366,0,0,0,.283-.161.348.348,0,0,0,.055-.11c.009-.023.018-.048.029-.074H1.9c-.156,0-.361,0-.566,0a.189.189,0,0,0-.138.07.881.881,0,0,0-.08.168c-.012.031-.025.063-.04.1h.094l.2,0ZM3.9,1.437l.023.045c.065.131.121.244.265.265.053.008.109.01.162.012a1.642,1.642,0,0,1,.169.013.383.383,0,0,0,.055,0,.317.317,0,0,0,.286-.206c.013-.025.025-.051.037-.079l.024-.055ZM.463.346A.381.381,0,0,0,.418.861c.116.2.238.4.356.587L.927,1.7a.421.421,0,0,0,.079-.594C.95,1.02.894.934.839.847S.711.645.644.546A.389.389,0,0,1,.611.476C.586.412.56.346.463.346ZM5.575,1.428h0a.18.18,0,0,0-.149.091l-.008.01a.331.331,0,0,0-.046.108c-.006.02-.012.04-.02.06H6.423l.059-.1.1-.166H6.019c-.172,0-.311,0-.438,0H5.575Zm3.161,0-.546,0c-.009,0-.019.012-.029.027a.278.278,0,0,1-.019.023c.006.014.013.029.021.045l.017.036.056.13h.7l.089-.132,0,0,.086-.127H8.736ZM4.6.356a2.021,2.021,0,0,1,.237.4,1.652,1.652,0,0,0,.211.357.329.329,0,0,1,.023.442c0,.006,0,.022.007.038a.225.225,0,0,1,.008.023l.021.008a.106.106,0,0,0,.032.01l.007,0a.322.322,0,0,0,.1-.394C5.118.985,4.971.711,4.784.378,4.777.365,4.748.364,4.7.362,4.671.361,4.636.36,4.6.356Z" transform="translate(29.518 21.102)" fill="#131313"/>
  </g>
  <text id="Mtttour" transform="translate(77 36)" fill="#131313" font-size="28" font-family="SegoeUI, Segoe UI"><tspan x="0" y="0">Mtttour</tspan></text>
</svg>
