<svg xmlns="http://www.w3.org/2000/svg" width="19" height="21" viewBox="0 0 19 21">
  <g id="Group" transform="translate(0 0)">
    <path id="Path" d="M1.524,0H0A3.528,3.528,0,0,0,2.126,1.8,7.187,7.187,0,0,1,1.524,0Z" transform="translate(2.505 11.913)"/>
    <path id="Path-2" data-name="Path" d="M0,0A6.053,6.053,0,0,0,.78,1.959c.035,0,.067.01.1.01s.068-.009.1-.01A6.038,6.038,0,0,0,1.764,0Z" transform="translate(4.748 11.913)"/>
    <path id="Path-3" data-name="Path" d="M1.685,0H0a8.61,8.61,0,0,1,.05.9A8.506,8.506,0,0,1,0,1.79H1.685A3.6,3.6,0,0,0,1.81.9,3.6,3.6,0,0,0,1.685,0Z" transform="translate(7.338 9.406)"/>
    <path id="Path-4" data-name="Path" d="M0,0A7.037,7.037,0,0,1,.6,1.8H2.127A3.528,3.528,0,0,0,0,0Z" transform="translate(6.628 6.885)"/>
    <path id="Path-5" data-name="Path" d="M.986.011C.951.01.918,0,.883,0S.815.009.78.01A6,6,0,0,0,0,1.969H1.766A6.01,6.01,0,0,0,.986.011Z" transform="translate(4.747 6.721)"/>
    <path id="Path-6" data-name="Path" d="M2.056,0h-2A7.786,7.786,0,0,0,0,.9a7.706,7.706,0,0,0,.056.9h2A7.756,7.756,0,0,0,2.111.9,7.847,7.847,0,0,0,2.056,0Z" transform="translate(4.574 9.406)"/>
    <path id="Path-7" data-name="Path" d="M0,1.8H1.522a7.061,7.061,0,0,1,.6-1.8A3.528,3.528,0,0,0,0,1.8Z" transform="translate(2.505 6.885)"/>
    <path id="Path-8" data-name="Path" d="M1.759.9a8.6,8.6,0,0,1,.05-.9H.125A3.6,3.6,0,0,0,0,.9a3.6,3.6,0,0,0,.125.9H1.81A8.445,8.445,0,0,1,1.759.9Z" transform="translate(2.111 9.406)"/>
    <path id="Path-9" data-name="Path" d="M.6,0A7.164,7.164,0,0,1,0,1.8,3.528,3.528,0,0,0,2.125,0Z" transform="translate(6.629 11.913)"/>
    <path id="Shape" d="M5.7,20.951.788,19.612H3.215a1.42,1.42,0,0,0,1.408-1.433V16.84l1.4-5.438-.68-.185-.725,2.806V5.409l.665.182.926,3.082.649.176L6.8,6l1.147.313.5.9.433.118L8.808,6.079l.683-1.051L9.059,4.91l-.88.527L7.033,5.123,8.484,2.689l-.649-.177-2.317,2.2L4.291,4.376a1.389,1.389,0,0,0-1.076-.519H0L.735,1.062A1.405,1.405,0,0,1,2.46.049l8.157,2.224a1.435,1.435,0,0,1,.994,1.754L9.882,10.595l-.68-.181-.183.692.681.181L7.422,19.938A1.413,1.413,0,0,1,6.063,21,1.387,1.387,0,0,1,5.7,20.951Z" transform="translate(7.34)"/>
    <path id="Shape-2" data-name="Shape" d="M0,14.324V0H10.555a.71.71,0,0,1,.7.716V13.607a.71.71,0,0,1-.7.716Z" transform="translate(0 4.572)"/>
  </g>
</svg>
