<svg xmlns="http://www.w3.org/2000/svg" width="15.357" height="9.819" viewBox="0 0 15.357 9.819">
  <path id="Shape" d="M1.063,9.819a1.084,1.084,0,0,1-.754-.277A.878.878,0,0,1,0,8.863V5.423a.5.5,0,0,1,.171-.378.593.593,0,0,1,.42-.161.593.593,0,0,1,.42.161.5.5,0,0,1,.171.378V8.431a.3.3,0,0,0,.1.231.369.369,0,0,0,.257.093H13.814a.369.369,0,0,0,.257-.093.3.3,0,0,0,.1-.231V5.423a.5.5,0,0,1,.171-.378.593.593,0,0,1,.42-.161.574.574,0,0,1,.42.169.483.483,0,0,1,.171.37v3.44a.883.883,0,0,1-.309.67,1.067,1.067,0,0,1-.754.285ZM7.284,7.1,4.611,4.7a.48.48,0,0,1-.172-.37.505.505,0,0,1,.172-.378.577.577,0,0,1,.411-.162.661.661,0,0,1,.428.154l1.662,1.5V.54A.5.5,0,0,1,7.284.154.6.6,0,0,1,7.7,0a.626.626,0,0,1,.419.154A.489.489,0,0,1,8.3.54v4.9L9.958,3.958a.567.567,0,0,1,.411-.169.608.608,0,0,1,.42.162.5.5,0,0,1,.18.378.463.463,0,0,1-.189.37L8.107,7.1a.625.625,0,0,1-.824,0Z" fill="#000001"/>
</svg>
